<svg width="51" height="50" fill="none" xmlns="http://www.w3.org/2000/svg"><path d="M36.48 10.682a2.03 2.03 0 002.042-2.02V2.02A2.03 2.03 0 0036.48 0a2.031 2.031 0 00-2.042 2.02v6.642c0 1.116.915 2.02 2.042 2.02zm-21.96 0a2.031 2.031 0 002.042-2.02V2.02C16.562.904 15.647 0 14.52 0a2.03 2.03 0 00-2.042 2.02v6.642a2.03 2.03 0 002.042 2.02zm33.758-5.746h-7.306v3.726c0 2.45-2.015 4.444-4.492 4.444s-4.492-1.993-4.492-4.444V4.936H19.012v3.726c0 2.45-2.015 4.444-4.492 4.444s-4.492-1.993-4.492-4.444V4.936H2.722C1.22 4.936 0 6.142 0 7.63v11.042h51V7.629c0-1.487-1.219-2.693-2.722-2.693zM0 47.307C0 48.795 1.219 50 2.722 50h45.556C49.78 50 51 48.795 51 47.307V20.825H0v26.482zm37.69-20.086h6.965v6.89h-6.966v-6.89zm0 9.83h6.965v6.89h-6.966v-6.89zM27.24 27.22h6.965v6.89H27.24v-6.89zm0 9.83h6.965v6.89H27.24v-6.89zm-10.447-9.83h6.965v6.89h-6.965v-6.89zm0 9.83h6.965v6.89h-6.965v-6.89zM6.345 27.22h6.965v6.89H6.345v-6.89zm0 9.83h6.965v6.89H6.345v-6.89z" fill="#3989E7"/></svg>