<svg width="57" height="67" fill="none" xmlns="http://www.w3.org/2000/svg"><path d="M12.036 14.063c.916-.353.916-1.692 0-2.045l-1.692-.634a4.189 4.189 0 01-2.326-2.326l-.634-1.692c-.353-.916-1.692-.916-2.044 0l-.635 1.692a4.189 4.189 0 01-2.326 2.326l-1.692.634c-.916.353-.916 1.692 0 2.045l1.692.634a4.189 4.189 0 012.326 2.326l.635 1.692c.352.916 1.691.916 2.044 0l.634-1.692a4.189 4.189 0 012.326-2.326l1.692-.634zm2.257-8.53l1.268.494c.776.282 1.41.916 1.692 1.692l.494 1.268a.833.833 0 001.55 0l.494-1.268a2.865 2.865 0 011.692-1.692l1.268-.494a.833.833 0 000-1.55l-1.339-.423c-.775-.353-1.41-.987-1.692-1.763L19.227.53a.833.833 0 00-1.55 0l-.424 1.268a2.865 2.865 0 01-1.692 1.692l-1.268.494a.833.833 0 000 1.55zM35.297 16.53a5.453 5.453 0 01-3.665 0C16.336 10.75 8.37 22.24 10.344 33.306c.494 2.89 1.762 5.498 3.243 7.683 1.903 2.89 3.172 6.204 3.383 9.728C17.605 59.599 18.098 67 21.763 67c4.3 0 5.569-7.401 6.274-10.221 1.057-4.37 2.608-7.754 3.806-9.728.353-.634.987-.916 1.622-.916.634 0 1.268.282 1.62.916 1.129 2.045 2.68 5.358 3.807 9.728C39.597 59.599 40.866 67 45.166 67c3.595 0 4.159-7.401 4.793-16.283.212-3.454 1.48-6.767 3.384-9.728 1.48-2.185 2.678-4.793 3.242-7.683C58.63 22.24 50.593 10.75 35.297 16.53zM26.84 27.808l-1.34.493c-.846.282-1.48.987-1.832 1.833l-.494 1.34c-.282.704-1.34.704-1.621 0l-.494-1.34c-.282-.846-.986-1.48-1.832-1.833l-1.34-.493c-.704-.282-.704-1.34 0-1.621l1.41-.423c.846-.282 1.48-.987 1.833-1.833l.493-1.34c.282-.704 1.34-.704 1.622 0l.493 1.34c.282.846.987 1.48 1.833 1.833l1.34.493c.704.282.704 1.269-.071 1.55z" fill="#3989E7"/></svg>