<svg width="47" height="48" fill="none" xmlns="http://www.w3.org/2000/svg"><rect x=".079" width="46.737" height="48" rx="2" fill="#3989E7"/><path d="M15.682 14.637v-.68a11.1 11.1 0 01.063-.836 5.59 5.59 0 01.158-.837 3.08 3.08 0 01.3-.758c.137-.22.305-.4.505-.537.21-.136.468-.205.774-.205.305 0 .563.069.773.205.21.137.385.316.521.537.137.221.237.474.3.758.074.274.127.553.158.837.042.284.063.563.063.837a17.393 17.393 0 01-.015 1.831 5.91 5.91 0 01-.206 1.295c-.105.41-.284.763-.536 1.058-.242.295-.595.442-1.058.442-.453 0-.8-.147-1.042-.442a2.87 2.87 0 01-.537-1.058 6.624 6.624 0 01-.19-1.295 25.352 25.352 0 01-.031-1.152zm-2.242 0c0 1.105.105 2.031.315 2.779.221.737.516 1.326.885 1.768.368.442.794.758 1.278.947.495.19 1.016.285 1.564.285a4.25 4.25 0 001.563-.285 3.13 3.13 0 001.295-.947c.378-.442.673-1.031.884-1.768.22-.748.331-1.674.331-2.78 0-1.073-.11-1.973-.331-2.7-.21-.736-.506-1.325-.884-1.768a3.132 3.132 0 00-1.295-.947 4.251 4.251 0 00-1.563-.284c-.548 0-1.069.095-1.563.284a3.16 3.16 0 00-1.28.947c-.368.443-.663 1.032-.884 1.769-.21.726-.315 1.626-.315 2.7zm9.389 3.142v2.431h2.479v-2.43h-2.479zm7.047-4.153v1.58c.274 0 .558.01.853.03.305.011.584.07.837.175a1.3 1.3 0 01.615.473c.169.221.253.542.253.963 0 .537-.174.963-.521 1.28-.347.305-.774.457-1.279.457a1.96 1.96 0 01-.853-.174 1.796 1.796 0 01-.584-.457 2.183 2.183 0 01-.363-.695 3.284 3.284 0 01-.142-.853H26.56c-.01.642.08 1.21.269 1.705.2.495.479.916.837 1.264.357.337.79.594 1.294.773a5.175 5.175 0 001.706.269c.537 0 1.052-.08 1.547-.237a4.01 4.01 0 001.31-.695c.38-.305.68-.684.9-1.137.232-.452.348-.968.348-1.547 0-.632-.174-1.174-.521-1.626-.347-.453-.827-.748-1.437-.885v-.031c.516-.147.9-.426 1.153-.837.263-.41.394-.884.394-1.421 0-.495-.11-.932-.331-1.31a3.15 3.15 0 00-.869-.964 3.56 3.56 0 00-1.184-.584 4.465 4.465 0 00-1.326-.205c-.569 0-1.084.095-1.547.284a3.415 3.415 0 00-1.2.774 3.699 3.699 0 00-.774 1.216 4.76 4.76 0 00-.3 1.547h2.131c-.01-.569.127-1.037.41-1.405.296-.38.727-.569 1.296-.569.41 0 .773.127 1.09.38.315.252.473.615.473 1.089 0 .315-.08.568-.237.758a1.47 1.47 0 01-.584.442 2.494 2.494 0 01-.758.173 4.732 4.732 0 01-.774 0zM10.685 30.995v8.163h2.243V34.42c0-.4.057-.721.173-.963.116-.253.253-.442.41-.569.17-.136.338-.226.506-.268.179-.053.321-.079.426-.079.358 0 .627.063.806.19.19.115.32.273.394.473.085.2.132.421.143.663.01.232.015.469.015.71v4.58h2.242V34.61c0-.253.016-.5.048-.743a2.05 2.05 0 01.22-.663c.117-.2.27-.358.459-.474.2-.126.458-.189.773-.189.316 0 .564.053.742.158.19.105.332.247.427.426.095.18.152.39.174.632.02.242.031.5.031.773v4.627h2.242v-5.463c0-.527-.073-.974-.22-1.342a2.306 2.306 0 00-.617-.916 2.416 2.416 0 00-.947-.506 4.353 4.353 0 00-1.2-.157c-.569 0-1.063.136-1.484.41a3.54 3.54 0 00-.98.948c-.22-.506-.547-.858-.978-1.058-.421-.2-.89-.3-1.405-.3-.537 0-1.016.115-1.437.347-.41.232-.763.558-1.058.979H12.8v-1.105h-2.116zm14.31 0v8.163h2.242V34.42c0-.4.058-.721.174-.963.115-.253.252-.442.41-.569.168-.136.337-.226.505-.268a1.6 1.6 0 01.427-.079c.357 0 .626.063.805.19.19.115.32.273.395.473.084.2.131.421.142.663.01.232.015.469.015.71v4.58h2.243V34.61c0-.253.015-.5.047-.743a2.05 2.05 0 01.221-.663c.116-.2.268-.358.458-.474.2-.126.458-.189.774-.189.315 0 .563.053.742.158.19.105.331.247.426.426.095.18.153.39.174.632.02.242.031.5.031.773v4.627h2.242v-5.463c0-.527-.073-.974-.22-1.342a2.305 2.305 0 00-.616-.916 2.416 2.416 0 00-.948-.506 4.353 4.353 0 00-1.2-.157c-.568 0-1.063.136-1.484.41-.41.274-.737.59-.979.948-.221-.506-.547-.858-.979-1.058-.421-.2-.89-.3-1.405-.3-.537 0-1.016.115-1.437.347a3.22 3.22 0 00-1.058.979h-.032v-1.105h-2.115zM8.29 24h31.578v2.526H8.29V24z" fill="#fff"/></svg>