<svg width="49" height="55" fill="none" xmlns="http://www.w3.org/2000/svg"><path fill-rule="evenodd" clip-rule="evenodd" d="M36.502 27.063c-.14-.945-.384-1.438-.626-1.643-2.718-2.305-10.595-9.579-12.486-17.917-.458-2.02-.161-4-.765-5.964-.301-.655-2.715-3.5-5.43.753-2.715 4.254.604 17.343.604 17.343s.678 1.472-6.582 1.442c-1.124-.004-3.072 0-3.977 0-1.207 0-5.732.849-5.43 4.448.302 3.6 3.62 3.927 3.62 3.927S0 30.106 0 33.38c0 3.272.905 4.908 6.033 4.908 0 0-5.43.655-4.525 4.909.905 4.254 5.732 3.272 5.732 3.272s-3.017 2.062-2.413 4.581c.603 2.52 1.81 3.6 6.636 3.927 4.827.327 25.05-2.717 25.05-6.316 0-1.964.257-17.15.236-18.408 0 0-.048-1.859-.247-3.19z" fill="#3989E7"/><path d="M48.402 24.655h-8.227a.6.6 0 00-.598.602v24.4a.6.6 0 00.598.602h8.227a.6.6 0 00.598-.602v-24.4a.6.6 0 00-.598-.602z" fill="#3989E7"/></svg>