<svg width="59" height="53" fill="none" xmlns="http://www.w3.org/2000/svg"><path d="M16.75 19.916C16.433 18.862 15.275 18 14.175 18H1.481c-1.1 0-1.438.703-.753 1.563L24.93 49.896c.686.86.99.701.674-.353L16.75 19.916zM15.176 15c1.1 0 2.43-.791 2.954-1.758l6.23-11.484C24.883.791 24.412 0 23.312 0H11.176c-1.1 0-2.499.749-3.109 1.664L.285 13.336C-.325 14.251.076 15 1.176 15h14zm6.972 0h14.057c1.1 0 1.558-.784 1.017-1.742L30.16.742c-.54-.958-1.425-.958-1.966 0L21.13 13.258c-.54.958-.082 1.742 1.018 1.742zm35.919-1.664L50.285 1.664C49.675.749 48.276 0 47.176 0H35.04c-1.1 0-1.57.791-1.046 1.758l6.23 11.484c.524.967 1.853 1.758 2.953 1.758h14c1.1 0 1.501-.749.891-1.664zM37.321 18h-16.29c-1.1 0-1.756.866-1.458 1.925l9.06 32.15c.298 1.059.787 1.059 1.085 0l9.06-32.15c.3-1.059-.357-1.925-1.457-1.925zm19.55 0H44.176c-1.1 0-2.258.862-2.573 1.916L32.75 49.544c-.315 1.054-.01 1.213.674.353l24.201-30.333c.686-.861.347-1.564-.753-1.564z" fill="#2F80ED"/></svg>