<svg width="45" height="57" fill="none" xmlns="http://www.w3.org/2000/svg"><path d="M44.519 8.084a1.775 1.775 0 00-1.266-.526h-.102c-8.094 0-15.496-2.669-19.306-6.955A1.754 1.754 0 0022.515 0c-.511 0-.984.218-1.33.603-3.81 4.299-11.2 6.955-19.306 6.955h-.102c-.473 0-.92.193-1.253.526A1.804 1.804 0 000 9.342v16.45c0 5.993 1.598 11.806 4.603 16.823 4.334 7.212 10.356 12.293 16.953 14.308.166.051.345.077.512.077h.856c.18 0 .345-.026.512-.077 6.597-2.015 12.619-7.096 16.953-14.308 3.017-5.017 4.603-10.83 4.603-16.823V9.342c.05-.475-.14-.924-.473-1.258zM34.968 22.56L18.922 37.033a2.02 2.02 0 01-1.355.526c-.55 0-1.087-.218-1.483-.654L9.96 30.297a2.036 2.036 0 01.102-2.875 2.018 2.018 0 012.864.103l4.769 5.145 14.563-13.127a2.02 2.02 0 012.863.154c.755.822.678 2.117-.153 2.862z" fill="#3989E7"/></svg>